<svg width="685" height="531" viewBox="0 0 685 531" fill="none" xmlns="http://www.w3.org/2000/svg">
<g filter="url(#filter0_bd_235_280)">
<path d="M142.564 384.584C152.563 377.713 164.411 374.035 176.544 374.035H508.456C520.589 374.035 532.437 377.713 542.436 384.584L615.453 434.758C623.548 440.32 619.611 453 609.79 453H75.2102C65.3885 453 61.4521 440.32 69.5468 434.758L142.564 384.584Z" fill="#D9D9D9" fill-opacity="0.05" shape-rendering="crispEdges"/>
<path d="M142.705 384.79C152.663 377.948 164.461 374.285 176.544 374.285H508.456C520.539 374.285 532.337 377.948 542.295 384.79L615.312 434.964C623.204 440.387 619.366 452.75 609.79 452.75H75.2102C65.6341 452.75 61.796 440.387 69.6884 434.964L142.705 384.79Z" stroke="#505050" stroke-width="0.5" shape-rendering="crispEdges"/>
</g>
<g filter="url(#filter1_bii_235_280)">
<ellipse cx="342.5" cy="221.103" rx="33.5" ry="33.9849" fill="#D9D9D9" fill-opacity="0.01"/>
</g>
<g clip-path="url(#clip0_235_280)">
<path d="M468.228 116.655C468.228 184.838 443.191 224.418 443.191 224.418C517.26 263.651 587.678 193.731 587.678 125.549C587.678 57.3657 544.885 -24.2012 425.191 19.0383C425.191 14.3305 468.228 48.4727 468.228 116.655Z" fill="url(#paint0_linear_235_280)"/>
<path d="M563.162 97.3C575.159 165.828 546.992 191.461 546.992 191.461C559.51 188.845 578.289 155.366 578.289 122.41C578.289 54.2273 525.606 -4.70818 460.926 16.7397C463.534 16.7397 542.297 23.5404 563.162 97.3Z" fill="white" fill-opacity="0.3"/>
<path d="M478.139 116.132C478.139 172.478 452.58 215.001 452.58 215.001C457.274 215.001 546.992 192.507 542.819 124.458C542.819 68.1126 488.571 35.5719 466.142 43.4189C466.142 39.5284 478.139 59.7866 478.139 116.132Z" fill="#2D63A1"/>
<path d="M455.046 116.768C455.046 173.113 438.383 223.62 438.383 223.62C443.078 223.62 519.726 216.047 519.726 125.094C519.726 68.7488 473.443 34.0023 451.014 41.8493C451.014 37.9588 455.046 60.4225 455.046 116.768Z" fill="#183555"/>
<path d="M216.449 116.655C216.449 184.838 241.487 224.418 241.487 224.418C167.418 263.651 97 193.731 97 125.549C97 57.3657 139.793 -24.2012 259.486 19.0383C259.486 14.3305 216.449 48.4727 216.449 116.655Z" fill="url(#paint1_linear_235_280)"/>
<path d="M121.516 97.3C109.519 165.828 137.686 191.461 137.686 191.461C125.167 188.845 106.389 155.366 106.389 122.41C106.389 54.2273 159.072 -4.70818 223.752 16.7397C221.144 16.7397 142.38 23.5404 121.516 97.3Z" fill="white" fill-opacity="0.3"/>
<path d="M206.539 116.132C206.539 172.478 232.098 215.001 232.098 215.001C227.403 215.001 137.686 192.507 141.859 124.458C141.859 68.1126 196.107 35.5719 218.536 43.4189C218.536 39.5284 206.539 59.7866 206.539 116.132Z" fill="#2D63A1"/>
<path d="M229.632 116.768C229.632 173.113 246.294 223.62 246.294 223.62C241.6 223.62 164.952 216.047 164.952 125.094C164.952 68.7488 211.234 34.0023 233.664 41.8493C233.664 37.9588 229.632 60.4225 229.632 116.768Z" fill="#183555"/>
<path d="M269.782 314.968C266.693 288.206 280.933 251.077 284.261 247.527C302.294 228.297 348.934 228.489 348.934 228.489C348.934 228.489 394.469 226.883 404.92 247.527C415.538 268.502 420.29 286.376 420.043 312.387C419.758 342.332 399.656 384.596 390.441 395.317C382.398 404.674 363.91 405.965 355.691 399.189C347.473 392.412 345.857 383.359 348.934 373.374C359.874 337.879 388.51 293.026 376.284 263.339C368.589 244.654 352.152 243.978 341.534 243.978C327.695 243.978 309.037 256.821 309.037 277.214C309.037 314.968 347.482 358.254 339.604 388.54C337.673 395.962 328.986 402.738 323.516 402.738C318.046 402.738 300.35 402.738 294.558 391.122C280.564 363.055 273.322 345.623 269.782 314.968Z" fill="url(#paint2_linear_235_280)"/>
<path d="M391.085 283.361C391.085 306.751 360.371 364.984 346.196 364.984C332.02 364.984 300.362 311.524 297.999 289.567C295.637 267.61 312.095 238.492 342.888 238.492C373.681 238.492 391.085 263.314 391.085 283.361Z" fill="url(#paint3_linear_235_280)"/>
<path d="M376.284 289.476C376.284 305.288 355.37 344.655 345.718 344.655C336.065 344.655 314.507 308.515 312.898 293.671C311.29 278.828 322.496 259.144 343.465 259.144C364.433 259.144 376.284 275.924 376.284 289.476Z" fill="white"/>
<ellipse cx="20.1251" cy="20.6009" rx="20.1251" ry="20.6009" transform="matrix(0.965822 0.259206 -0.258432 0.966029 330.175 266.909)" fill="url(#paint4_linear_235_280)"/>
<path d="M338.109 295.804C338.23 295.683 338.394 295.615 338.565 295.615H354.335C354.622 295.615 354.766 295.963 354.563 296.167L351.447 299.285C351.326 299.406 351.162 299.474 350.991 299.474H335.221C334.934 299.474 334.79 299.126 334.993 298.923L338.109 295.804Z" fill="url(#paint5_linear_235_280)"/>
<path d="M338.109 284.153C338.23 284.032 338.394 283.964 338.565 283.964H354.335C354.622 283.964 354.766 284.312 354.563 284.516L351.447 287.634C351.326 287.755 351.162 287.823 350.991 287.823H335.221C334.934 287.823 334.79 287.475 334.993 287.272L338.109 284.153Z" fill="url(#paint6_linear_235_280)"/>
<path d="M351.447 289.942C351.326 289.821 351.162 289.753 350.991 289.753H335.221C334.934 289.753 334.79 290.101 334.993 290.304L338.109 293.423C338.23 293.544 338.394 293.612 338.565 293.612H354.335C354.622 293.612 354.766 293.264 354.563 293.06L351.447 289.942Z" fill="url(#paint7_linear_235_280)"/>
<path d="M347.866 386.98C345.38 377.835 353.232 361.45 353.232 361.45C353.232 361.45 351.777 369.49 352.79 376.601C354.077 385.636 361.477 392.09 361.477 392.09C361.477 392.09 356.651 390.799 356.651 392.09C356.651 392.682 358.684 395.341 362.121 397.575C366.174 400.212 373.294 403.093 372.423 403.384C371.458 403.706 362.931 403.462 358.598 401.313C351.998 398.039 349.797 394.079 347.866 386.98Z" fill="#9945FF"/>
<path d="M341.641 386.191C344.128 377.046 337.134 360.106 337.134 360.106C337.134 360.106 337.73 368.701 336.718 375.812C335.43 384.847 328.03 391.301 328.03 391.301C328.03 391.301 332.856 390.01 332.856 391.301C332.856 391.893 330.824 394.552 327.387 396.786C323.333 399.423 316.213 402.304 317.084 402.595C318.049 402.917 326.576 402.674 330.909 400.524C337.509 397.25 339.711 393.29 341.641 386.191Z" fill="#9945FF"/>
<path d="M440.957 305.61C432.76 304.275 420.043 308.515 420.043 312.709C420.044 335.208 406.851 363.693 400.417 380.796C398.296 386.432 406.654 389.703 412.644 390.154C425.512 391.122 442.888 393.029 449.002 390.154C456.865 386.456 457.446 379.236 460.585 371.115C464.7 360.467 465.638 335.539 460.585 325.617C455.532 315.695 451.924 307.397 440.957 305.61Z" fill="#2D63A1"/>
<path d="M440.957 305.61C432.76 304.275 420.043 308.515 420.043 312.709C420.044 335.208 406.851 363.693 400.417 380.796C398.296 386.432 406.654 389.703 412.644 390.154C425.512 391.122 442.888 393.029 449.002 390.154C456.865 386.456 457.446 379.236 460.585 371.115C464.7 360.467 465.638 335.539 460.585 325.617C455.532 315.695 451.924 307.397 440.957 305.61Z" fill="url(#paint8_linear_235_280)"/>
<path d="M433.556 342.396C424.226 342.362 411.998 352.722 411.998 352.722C411.998 352.722 415.884 340.263 417.468 332.071C418.987 324.214 420.042 311.741 420.042 311.741C420.042 311.741 422.772 311.103 423.903 314C427.21 322.47 418.866 341.106 420.685 341.106C421.651 341.106 426.958 337.11 431.947 336.588C437.437 336.014 440.869 336.968 445.782 339.492C451.239 342.296 453.966 345.146 457.044 350.464C461.193 357.631 462.192 371.438 460.261 371.438C460.261 371.438 457.366 362.725 457.044 361.435C456.249 358.242 455.113 352.722 448.035 346.591C443.58 342.733 439.441 342.418 433.556 342.396Z" fill="#FFEDED" fill-opacity="0.7"/>
<path d="M414.573 392.061C414.573 392.061 396.232 388.511 396.875 385.607C397.344 383.494 411.033 357.562 410.39 360.467C408.713 368.035 405.563 376.278 407.494 380.473C408.246 382.108 412.813 364.367 421.008 359.499C426.945 355.972 434.166 355.233 437.739 355.949C442.565 356.917 444.174 362.725 444.174 362.725C444.174 362.725 452.482 361.71 454.792 365.307C456.168 367.449 455.757 371.761 455.757 371.761C455.757 371.761 461.77 371.491 462.836 374.342C464.767 379.505 461.842 384.757 457.366 387.895C449.486 393.419 414.534 391.659 414.573 392.061Z" fill="#27BDEC"/>
<path d="M443.16 367.64C442.266 370.906 439.466 372.982 436.905 372.277C434.345 371.572 432.663 367.605 433.556 364.339C434.45 361.073 437.58 359.747 440.14 360.452C442.701 361.157 444.053 364.374 443.16 367.64Z" fill="#183555"/>
<path d="M454.792 371.438C453.842 374.91 449.275 377.175 446.43 376.392C443.584 375.609 442.048 372.16 442.998 368.689C443.947 365.217 447.024 363.038 449.869 363.821C452.714 364.604 455.741 367.967 454.792 371.438Z" fill="#183555"/>
<path d="M462.034 379.372C461.32 381.98 459.111 383.067 456.722 382.409C454.334 381.752 452.47 379.209 453.183 376.601C453.896 373.993 456.612 372.803 459.001 373.46C461.389 374.117 462.747 376.764 462.034 379.372Z" fill="#183555"/>
<path d="M439.991 366.92C441.412 366.92 442.565 365.765 442.565 364.339C442.565 362.913 441.412 361.757 439.991 361.757C438.569 361.757 437.417 362.913 437.417 364.339C437.417 365.765 438.569 366.92 439.991 366.92Z" fill="#D9D9D9" fill-opacity="0.6"/>
<path d="M449.644 372.729C451.065 372.729 452.218 371.573 452.218 370.147C452.218 368.722 451.065 367.566 449.644 367.566C448.222 367.566 447.069 368.722 447.069 370.147C447.069 371.573 448.222 372.729 449.644 372.729Z" fill="#D9D9D9" fill-opacity="0.6"/>
<path d="M458.009 379.182C459.431 379.182 460.583 378.027 460.583 376.601C460.583 375.175 459.431 374.02 458.009 374.02C456.588 374.02 455.435 375.175 455.435 376.601C455.435 378.027 456.588 379.182 458.009 379.182Z" fill="#D9D9D9" fill-opacity="0.6"/>
<path d="M433.234 373.697C436.773 373.051 440.634 373.051 441.6 370.792C442.151 369.502 442.96 375.307 445.783 376.601C448.308 377.757 452.862 374.665 452.862 375.955C452.862 377.246 453.143 381.535 455.758 382.409C459.618 383.7 460.294 380.521 461.549 382.409C462.192 383.377 459.175 387.149 455.758 388.863C449.965 391.767 445.613 391.219 438.382 391.767C429.232 392.461 418.111 393.058 412.964 391.767C411.27 391.342 410.103 390.297 409.103 388.863C407.741 386.909 408.771 384.928 409.733 383.079L409.746 383.054C413.607 375.633 423.153 375.535 433.234 373.697Z" fill="#2D63A1"/>
<path d="M424.868 322.39C423.581 324.972 422.734 331.246 421.329 336.911C420.954 338.424 420.364 340.783 420.364 340.783C420.364 340.783 422.686 339.719 424.225 339.17L424.289 339.147C429.644 337.237 433.075 336.014 438.704 336.911C444.254 337.795 447.405 339.586 451.574 343.364C455.764 347.162 459.296 355.626 459.296 355.626C459.296 355.626 458.976 347.051 457.687 341.751C456.007 334.839 454.47 330.457 450.609 324.972C447.005 319.851 443.023 316.881 436.773 316.904C431.657 316.924 427.157 317.801 424.868 322.39Z" fill="#183555"/>
<path d="M248.777 305.61C256.975 304.275 269.691 308.515 269.691 312.709C269.691 335.208 282.883 363.693 289.318 380.796C291.439 386.432 283.081 389.703 277.091 390.154C264.223 391.122 246.846 393.029 240.733 390.154C232.87 386.456 232.288 379.236 229.15 371.115C225.034 360.467 224.097 335.539 229.15 325.617C234.203 315.695 237.811 307.397 248.777 305.61Z" fill="#2D63A1"/>
<path d="M248.777 305.61C256.975 304.275 269.691 308.515 269.691 312.709C269.691 335.208 282.883 363.693 289.318 380.796C291.439 386.432 283.081 389.703 277.091 390.154C264.223 391.122 246.846 393.029 240.733 390.154C232.87 386.456 232.288 379.236 229.15 371.115C225.034 360.467 224.097 335.539 229.15 325.617C234.203 315.695 237.811 307.397 248.777 305.61Z" fill="url(#paint9_linear_235_280)"/>
<path d="M256.179 342.396C265.508 342.362 277.736 352.722 277.736 352.722C277.736 352.722 273.851 340.263 272.266 332.071C270.747 324.214 269.692 311.741 269.692 311.741C269.692 311.741 266.963 311.103 265.831 314C262.524 322.47 270.869 341.106 269.049 341.106C268.084 341.106 262.777 337.11 257.787 336.588C252.297 336.014 248.865 336.968 243.952 339.492C238.495 342.296 235.768 345.146 232.69 350.464C228.542 357.631 227.542 371.438 229.473 371.438C229.473 371.438 232.369 362.725 232.69 361.435C233.486 358.242 234.621 352.722 241.7 346.591C246.154 342.733 250.293 342.418 256.179 342.396Z" fill="#FFEDED" fill-opacity="0.7"/>
<path d="M275.161 392.061C275.161 392.061 293.503 388.511 292.859 385.607C292.391 383.494 278.702 357.562 279.345 360.467C281.022 368.035 284.171 376.278 282.241 380.473C281.489 382.108 276.922 364.367 268.727 359.499C262.79 355.972 255.569 355.233 251.996 355.949C247.169 356.917 245.561 362.725 245.561 362.725C245.561 362.725 237.252 361.71 234.943 365.307C233.567 367.449 233.977 371.761 233.977 371.761C233.977 371.761 227.965 371.491 226.899 374.342C224.968 379.505 227.892 384.757 232.369 387.895C240.248 393.419 275.2 391.659 275.161 392.061Z" fill="#27BDEC"/>
<path d="M246.575 367.64C247.469 370.906 250.269 372.982 252.829 372.277C255.39 371.572 257.072 367.605 256.179 364.339C255.285 361.073 252.155 359.747 249.594 360.452C247.034 361.157 245.682 364.374 246.575 367.64Z" fill="#183555"/>
<path d="M234.943 371.438C235.892 374.91 240.46 377.175 243.305 376.392C246.15 375.609 247.687 372.16 246.737 368.689C245.787 365.217 242.711 363.038 239.866 363.821C237.021 364.604 233.993 367.967 234.943 371.438Z" fill="#183555"/>
<path d="M227.701 379.372C228.415 381.98 230.624 383.067 233.012 382.409C235.401 381.752 237.265 379.209 236.551 376.601C235.838 373.993 233.122 372.803 230.734 373.46C228.345 374.117 226.988 376.764 227.701 379.372Z" fill="#183555"/>
<path d="M249.743 367.061C248.322 367.061 247.169 365.905 247.169 364.479C247.169 363.054 248.322 361.898 249.743 361.898C251.165 361.898 252.318 363.054 252.318 364.479C252.318 365.905 251.165 367.061 249.743 367.061Z" fill="#D9D9D9" fill-opacity="0.6"/>
<path d="M240.091 372.869C238.669 372.869 237.517 371.713 237.517 370.288C237.517 368.862 238.669 367.706 240.091 367.706C241.512 367.706 242.665 368.862 242.665 370.288C242.665 371.713 241.512 372.869 240.091 372.869Z" fill="#D9D9D9" fill-opacity="0.6"/>
<path d="M231.725 379.323C230.304 379.323 229.151 378.167 229.151 376.742C229.151 375.316 230.304 374.16 231.725 374.16C233.147 374.16 234.299 375.316 234.299 376.742C234.299 378.167 233.147 379.323 231.725 379.323Z" fill="#D9D9D9" fill-opacity="0.6"/>
<path d="M256.5 373.697C252.961 373.051 249.1 373.051 248.135 370.792C247.583 369.502 246.774 375.307 243.952 376.601C241.427 377.757 236.873 374.665 236.873 375.955C236.873 377.246 236.591 381.535 233.977 382.409C230.116 383.7 229.44 380.521 228.186 382.409C227.542 383.377 230.559 387.149 233.977 388.863C239.769 391.767 244.122 391.219 251.352 391.767C260.502 392.461 271.623 393.058 276.771 391.767C278.464 391.342 279.631 390.297 280.632 388.863C281.994 386.909 280.963 384.928 280.001 383.079L279.989 383.054C276.127 375.633 266.581 375.535 256.5 373.697Z" fill="#2D63A1"/>
<path d="M264.866 322.39C266.153 324.972 267 331.246 268.405 336.911C268.781 338.424 269.371 340.783 269.371 340.783C269.371 340.783 267.049 339.719 265.51 339.17L265.446 339.147C260.091 337.237 256.66 336.014 251.031 336.911C245.481 337.795 242.33 339.586 238.16 343.364C233.97 347.162 230.438 355.626 230.438 355.626C230.438 355.626 230.759 347.051 232.047 341.751C233.727 334.839 235.264 330.457 239.126 324.972C242.73 319.851 246.711 316.881 252.961 316.904C258.078 316.924 262.578 317.801 264.866 322.39Z" fill="#183555"/>
<path d="M492.76 127.334C492.76 169.604 460.263 254.472 344.109 254.472C227.955 254.472 199.318 177.35 199.318 127.334C199.318 59.5684 248.547 -4.0003 344.109 0.196901C431.948 -2.38696 492.76 57.1182 492.76 127.334Z" fill="#10052F"/>
<path d="M492.76 127.334C492.76 159.28 440.636 263.184 344.109 254.472C247.582 245.759 199.318 177.35 199.318 127.334C199.318 59.5684 248.547 -4.0003 344.109 0.196901C431.948 -2.38697 492.76 57.1182 492.76 127.334Z" fill="url(#paint10_linear_235_280)"/>
<path d="M237.591 168.721C209.231 146.333 209.447 96.5297 229.744 67.9418C254.737 36.0993 299.741 31.0205 328.1 53.4087C334.725 58.6387 339.9 64.2998 343.772 70.2819C347.644 64.2998 352.819 58.6387 359.444 53.4087C387.803 31.0205 432.807 36.0993 457.801 67.9418C478.097 96.5297 478.313 146.333 449.954 168.721C418.57 195.519 383.041 179.284 358.588 145.725C355.736 141.228 344.109 141.853 344.109 141.853C344.109 141.853 332.803 141.228 329.951 145.725C310.003 178.639 268.974 195.519 237.591 168.721Z" fill="#2D63A1"/>
<path d="M354.405 158.955C354.405 164.969 349.507 164.762 343.465 164.762C337.423 164.762 332.526 164.969 332.526 158.955C332.526 152.94 343.465 147.339 343.465 147.339C343.465 147.339 354.405 152.94 354.405 158.955Z" fill="#10052F"/>
<path d="M284.262 164.764C306.652 164.764 324.803 146.56 324.803 124.105C324.803 101.651 306.652 83.4473 284.262 83.4473C261.872 83.4473 243.721 101.651 243.721 124.105C243.721 146.56 261.872 164.764 284.262 164.764Z" fill="#D9D9D9" fill-opacity="0.5"/>
<path d="M332.847 137.335C322.551 163.473 289.44 185.378 262.268 176.092C230.851 166.7 220.413 133.203 230.851 102.486C244.364 72.7987 267.853 53.8437 300.066 64.8529C327.238 74.1391 343.285 106.617 332.847 137.335Z" fill="#FFEDED"/>
<path d="M453.36 84.0112C469.576 106.934 469.065 147.357 445.546 165.923C419.492 188.111 385.1 179.209 365.085 153.709C347.714 126.096 345.183 95.5916 373.065 73.5801C396.584 55.0135 433.345 58.5111 453.36 84.0112Z" fill="#FFEDED"/>
<path d="M403.312 164.764C425.702 164.764 443.853 146.56 443.853 124.105C443.853 101.651 425.702 83.4473 403.312 83.4473C380.922 83.4473 362.771 101.651 362.771 124.105C362.771 146.56 380.922 164.764 403.312 164.764Z" fill="#41D1FF"/>
<path d="M284.262 164.764C306.652 164.764 324.803 146.56 324.803 124.105C324.803 101.651 306.652 83.4473 284.262 83.4473C261.872 83.4473 243.721 101.651 243.721 124.105C243.721 146.56 261.872 164.764 284.262 164.764Z" fill="#41D1FF"/>
<path d="M373.067 194.45C373.067 196.232 359.67 207.681 343.144 207.681C326.618 207.681 313.22 196.232 313.22 194.45C313.22 192.668 326.618 203.808 343.144 203.808C359.67 203.808 373.067 192.668 373.067 194.45Z" fill="#172F50"/>
<path d="M393.016 113.134C399.768 113.134 405.242 107.644 405.242 100.872C405.242 94.1002 399.768 88.6104 393.016 88.6104C386.263 88.6104 380.789 94.1002 380.789 100.872C380.789 107.644 386.263 113.134 393.016 113.134Z" fill="#FFEDED"/>
<path d="M295.202 113.134C301.954 113.134 307.429 107.644 307.429 100.872C307.429 94.1002 301.954 88.6104 295.202 88.6104C288.449 88.6104 282.975 94.1002 282.975 100.872C282.975 107.644 288.449 113.134 295.202 113.134Z" fill="#FFEDED"/>
</g>
<defs>
<filter id="filter0_bd_235_280" x="-8.80853" y="300.035" width="702.617" height="230.965" filterUnits="userSpaceOnUse" color-interpolation-filters="sRGB">
<feFlood flood-opacity="0" result="BackgroundImageFix"/>
<feGaussianBlur in="BackgroundImageFix" stdDeviation="37"/>
<feComposite in2="SourceAlpha" operator="in" result="effect1_backgroundBlur_235_280"/>
<feColorMatrix in="SourceAlpha" type="matrix" values="0 0 0 0 0 0 0 0 0 0 0 0 0 0 0 0 0 0 127 0" result="hardAlpha"/>
<feOffset dy="13"/>
<feGaussianBlur stdDeviation="32.5"/>
<feComposite in2="hardAlpha" operator="out"/>
<feColorMatrix type="matrix" values="0 0 0 0 0 0 0 0 0 0 0 0 0 0 0 0 0 0 0.15 0"/>
<feBlend mode="normal" in2="effect1_backgroundBlur_235_280" result="effect2_dropShadow_235_280"/>
<feBlend mode="normal" in="SourceGraphic" in2="effect2_dropShadow_235_280" result="shape"/>
</filter>
<filter id="filter1_bii_235_280" x="279" y="157.118" width="127" height="127.97" filterUnits="userSpaceOnUse" color-interpolation-filters="sRGB">
<feFlood flood-opacity="0" result="BackgroundImageFix"/>
<feGaussianBlur in="BackgroundImageFix" stdDeviation="15"/>
<feComposite in2="SourceAlpha" operator="in" result="effect1_backgroundBlur_235_280"/>
<feBlend mode="normal" in="SourceGraphic" in2="effect1_backgroundBlur_235_280" result="shape"/>
<feColorMatrix in="SourceAlpha" type="matrix" values="0 0 0 0 0 0 0 0 0 0 0 0 0 0 0 0 0 0 127 0" result="hardAlpha"/>
<feOffset dx="4" dy="4"/>
<feGaussianBlur stdDeviation="49"/>
<feComposite in2="hardAlpha" operator="arithmetic" k2="-1" k3="1"/>
<feColorMatrix type="matrix" values="0 0 0 0 0.898039 0 0 0 0 0.901961 0 0 0 0 0.85098 0 0 0 0.4 0"/>
<feBlend mode="normal" in2="shape" result="effect2_innerShadow_235_280"/>
<feColorMatrix in="SourceAlpha" type="matrix" values="0 0 0 0 0 0 0 0 0 0 0 0 0 0 0 0 0 0 127 0" result="hardAlpha"/>
<feOffset dx="-5" dy="-4"/>
<feGaussianBlur stdDeviation="24"/>
<feComposite in2="hardAlpha" operator="arithmetic" k2="-1" k3="1"/>
<feColorMatrix type="matrix" values="0 0 0 0 0 0 0 0 0 0 0 0 0 0 0 0 0 0 0.25 0"/>
<feBlend mode="normal" in2="effect2_innerShadow_235_280" result="effect3_innerShadow_235_280"/>
</filter>
<linearGradient id="paint0_linear_235_280" x1="602.56" y1="6.95557" x2="403.879" y2="27.2667" gradientUnits="userSpaceOnUse">
<stop stop-color="#19FB9B"/>
<stop offset="1" stop-color="#8C01FA"/>
</linearGradient>
<linearGradient id="paint1_linear_235_280" x1="274.369" y1="6.95557" x2="75.6872" y2="27.2667" gradientUnits="userSpaceOnUse">
<stop stop-color="#19FB9B"/>
<stop offset="1" stop-color="#8C01FA"/>
</linearGradient>
<linearGradient id="paint2_linear_235_280" x1="344.489" y1="228.46" x2="258.718" y2="343.801" gradientUnits="userSpaceOnUse">
<stop stop-color="#19FB9B"/>
<stop offset="1" stop-color="#8C01FA"/>
</linearGradient>
<linearGradient id="paint3_linear_235_280" x1="344.43" y1="238.492" x2="344.43" y2="364.984" gradientUnits="userSpaceOnUse">
<stop stop-color="#20ECA1"/>
<stop offset="1" stop-color="#12865B"/>
</linearGradient>
<linearGradient id="paint4_linear_235_280" x1="20.1251" y1="0" x2="20.1251" y2="41.2018" gradientUnits="userSpaceOnUse">
<stop stop-color="#D9D9D9"/>
<stop offset="1" stop-color="#EEF5FF"/>
</linearGradient>
<linearGradient id="paint5_linear_235_280" x1="348.257" y1="279.71" x2="337.315" y2="300.634" gradientUnits="userSpaceOnUse">
<stop stop-color="#00FFA3"/>
<stop offset="1" stop-color="#DC1FFF"/>
</linearGradient>
<linearGradient id="paint6_linear_235_280" x1="348.257" y1="279.71" x2="337.315" y2="300.634" gradientUnits="userSpaceOnUse">
<stop stop-color="#00FFA3"/>
<stop offset="1" stop-color="#DC1FFF"/>
</linearGradient>
<linearGradient id="paint7_linear_235_280" x1="348.257" y1="279.71" x2="337.315" y2="300.634" gradientUnits="userSpaceOnUse">
<stop stop-color="#00FFA3"/>
<stop offset="1" stop-color="#DC1FFF"/>
</linearGradient>
<linearGradient id="paint8_linear_235_280" x1="431.967" y1="305.36" x2="388.258" y2="355.93" gradientUnits="userSpaceOnUse">
<stop stop-color="#19FB9B"/>
<stop offset="1" stop-color="#8C01FA"/>
</linearGradient>
<linearGradient id="paint9_linear_235_280" x1="257.59" y1="305.36" x2="213.88" y2="355.93" gradientUnits="userSpaceOnUse">
<stop stop-color="#19FB9B"/>
<stop offset="1" stop-color="#8C01FA"/>
</linearGradient>
<linearGradient id="paint10_linear_235_280" x1="345.63" y1="8.35331e-06" x2="132.102" y2="383.713" gradientUnits="userSpaceOnUse">
<stop stop-color="#19FB9B"/>
<stop offset="1" stop-color="#8C01FA"/>
</linearGradient>
<clipPath id="clip0_235_280">
<rect width="491" height="404" fill="white" transform="translate(97)"/>
</clipPath>
</defs>
</svg>
